<?xml version="1.0" encoding="UTF-8"?>
<svg width="1200pt" height="1200pt" version="1.1" viewBox="0 0 1200 1200" xmlns="http://www.w3.org/2000/svg">
 <path d="m1187.6 874.08-104.39-580.08c-2.5312-13.781-10.219-25.922-21.844-33.938-11.531-8.0625-25.547-11.062-39.375-8.625l-129.79 23.344 13.453-81.844c4.6875-28.688-14.766-55.781-43.453-60.609l-581.44-95.859c-13.781-2.2969-27.844 0.9375-39.234 9.1406-11.531 8.1562-19.078 20.391-21.375 34.312l-53.625 325.45-30.141 5.3906c-13.781 2.5312-25.922 10.219-33.938 21.844-7.5469 10.781-10.547 23.766-9 36.703h-29.156c-29.062 0-52.688 23.625-52.688 52.688v589.31c0 29.062 23.625 52.688 52.688 52.688h899.86c29.062 0 52.688-23.625 52.688-52.688v-153l128.16-23.062c13.781-2.5312 25.922-10.219 33.938-21.844 8.1094-11.484 11.109-25.547 8.6719-39.328zm-928.69-787.78c0.60938-3.4688 2.5312-6.6094 5.3906-8.7656 2.8594-2.0625 6.375-2.8594 9.9375-2.2969l581.53 95.859c7.3125 1.2188 12.234 8.1562 11.062 15.469l-15.703 95.625-643.69 115.78zm-194.63 422.39h899.86c7.4531 0 13.453 6 13.453 13.453v444.47l-193.92-190.08c-7.4531-7.4531-17.859-11.531-28.312-11.062-10.547 0.375-20.531 5.1562-27.469 13.219l-108.84 125.39-237.71-210c-19.547-17.297-49.219-16.312-67.312 2.2969l-263.21 267.47v-441.71c0-7.3594 6-13.453 13.453-13.453zm356.63 481.69c-116.62-0.14062-208.45-0.14062-272.86 0.14062-29.297 0.14062-51.609 0.23438-68.766 0.375l262.69-267c3.6094-3.7031 9.375-3.8438 13.219-0.375l237.94 210.24-49.219 56.766c-41.391-0.046876-82.875-0.14063-123-0.14063zm335.9-185.16 190.08 186.47c-83.531-0.23438-214.92-0.70312-350.86-0.9375zm207.24 319.64h-899.76c-7.4531 0-13.453-6-13.453-13.453v-80.859c57.938-1.0781 278.76-1.6875 926.63 0.46875v80.391c0.046874 7.4531-5.9531 13.453-13.406 13.453zm182.63-233.72c-2.0625 3-5.1562 4.9219-8.625 5.5312l-121.22 21.844v-396.37c0-29.062-23.625-52.688-52.688-52.688h-830.86l-0.70312-4.3125c-0.60938-3.4688 0.14062-7.0781 2.1562-10.078 2.0625-3 5.1562-4.9219 8.625-5.5312l885.61-159.37c3.4688-0.60937 7.0781 0.14063 10.078 2.1562 3 2.0625 4.9219 5.1562 5.5312 8.625l104.39 580.08c0.60938 3.5156-0.23437 7.125-2.2969 10.125z"/>
 <path d="m617.76 750.24c42.609 0 77.156-34.547 77.156-77.156 0-42.469-34.547-77.156-77.156-77.156s-77.156 34.547-77.156 77.156c0 42.469 34.547 77.156 77.156 77.156zm0-114.94c20.859 0 37.781 16.922 37.781 37.781s-16.922 37.781-37.781 37.781-37.781-17.062-37.781-37.781c-0.14062-20.859 16.875-37.781 37.781-37.781z"/>
</svg>
