<?xml version="1.0" encoding="UTF-8"?>
<svg width="1200pt" height="1200pt" version="1.1" viewBox="0 0 1200 1200" xmlns="http://www.w3.org/2000/svg">
 <path d="m732 252 54 46.781h-371.63l53.625-46.781c11.156-9.7031 25.406-15 40.219-15h183.24c14.859-0.09375 29.297 5.25 40.547 15zm-172.55 598.08c-12.094-11.203-18.891-26.953-18.844-43.453v-166.31c0-12.188 9.8438-22.125 22.078-22.172h74.625c6-0.14062 11.766 2.1094 16.031 6.3281 4.2656 4.1719 6.6562 9.8906 6.6562 15.844v163.69c0.5625 31.922-23.625 58.828-55.453 61.688-16.547 1.3594-32.906-4.3125-45.094-15.609zm14.062-43.453h-0.046875c0 6.4688 2.625 12.703 7.2656 17.203s10.875 6.9844 17.344 6.7969h3.8438c13.594 0 24.609-11.016 24.609-24.562 0-13.594-11.016-24.609-24.609-24.609h-3.8438c-6.7031-0.1875-13.125 2.4375-17.812 7.2188-4.6406 4.7812-7.125 11.297-6.7969 17.953zm-121.22-573.1c15.609-13.594 35.578-21.047 56.25-21h182.9c20.672-0.046875 40.688 7.4531 56.25 21.094l75.609 65.297h37.453l-96.938-84h-0.046874c-19.922-17.438-45.516-27.047-72-27.141h-183.24c-26.438 0.09375-51.984 9.6562-72 27l-96.938 84h37.453zm613.92 287.02-382.22 203.9v79.547c0.51562 44.859-33.656 82.5-78.375 86.297h-5.625c-21.281 0.046876-41.766-8.0625-57.234-22.688-16.922-15.797-26.625-37.828-26.766-60.984v-82.172l-382.22-204c-13.031-6.8906-24.562-16.359-33.844-27.844v482.63c0.09375 20.391 16.594 36.844 36.984 36.844h926.16c20.391 0 36.891-16.453 36.984-36.844v-482.63c-9.375 11.438-20.859 20.953-33.844 27.938zm33.844-160.55v62.391c0.09375 31.828-17.438 61.031-45.516 75.984l-370.55 197.63v-55.688c0-25.781-20.859-46.734-46.688-46.781h-74.625c-25.828 0.046875-46.688 21-46.688 46.781v55.688l-370.69-197.16c-27.984-14.953-45.469-44.203-45.375-75.984v-62.859c0.5625-20.016 16.922-36 36.984-36h926.16c20.062 0 36.422 15.984 36.984 36zm-257.53 149.63c0-3.1875-1.2656-6.2344-3.5156-8.4844s-5.2969-3.5156-8.4844-3.5156h-460.69c-6.6094 0-12 5.3906-12 12 0 6.6562 5.3906 12 12 12h460.31c3.2344 0.09375 6.375-1.125 8.7188-3.375s3.6562-5.3438 3.6562-8.625z"/>
</svg>
