<?xml version="1.0" encoding="UTF-8"?>
<svg width="1200pt" height="1200pt" version="1.1" viewBox="0 0 1200 1200" xmlns="http://www.w3.org/2000/svg" fill="#ffffff">
 <path d="m1033.5 699.24-127.69 56.766-163.78-94.547 102.38-45.141c6.4688-2.8594 10.547-9.2344 10.547-16.312s-4.2188-13.453-10.547-16.312l-102.38-45.141 163.64-94.547 127.78 56.625c2.3906 1.0781 4.7812 1.5469 7.2188 1.5469 6.8438 0 13.312-3.9375 16.312-10.547 3.9375-9-0.14062-19.453-9-23.531l-104.16-46.219 65.391-37.781c8.5312-4.9219 11.391-15.844 6.4688-24.234-4.9219-8.5312-15.844-11.391-24.234-6.4688l-65.391 37.688 12-113.16c1.0781-9.7031-6-18.469-15.844-19.547s-18.469 6-19.547 15.844l-14.625 138.94-163.78 94.547 12.141-111.14c0.70312-6.9375-2.625-13.781-8.7656-17.297-6.1406-3.4688-13.688-3.1406-19.453 1.0781l-90.234 66.141v-189.24l112.92-82.312c7.9219-5.7656 9.7031-16.922 3.9375-24.844s-16.922-9.7031-24.844-3.9375l-92.062 67.078v-75.469c0-9.8438-7.9219-17.766-17.766-17.766s-17.766 7.9219-17.766 17.766v75.469l-92.062-66.938c-7.9219-5.7656-19.078-4.0781-24.844 3.9375-5.7656 7.9219-4.0781 19.078 3.9375 24.844l112.92 82.312v189.24l-90.281-66.234c-5.625-4.2188-13.312-4.5469-19.453-1.0781s-9.6094 10.312-8.7656 17.297l12.141 111.23-163.92-94.547-14.766-138.94c-1.0781-9.7031-9.8438-16.922-19.547-15.844s-16.781 9.8438-15.844 19.547l12 113.3-65.391-37.781c-8.5312-4.9219-19.312-2.0625-24.234 6.4688s-2.0625 19.312 6.4688 24.234l65.391 37.688-104.06 46.219c-9 3.9375-13.078 14.531-9 23.531 2.8594 6.6094 9.4688 10.547 16.312 10.547 2.3906 0 4.7812-0.46875 7.2188-1.5469l127.69-56.719 163.78 94.547-102.38 45.141c-6.4688 2.8594-10.547 9.2344-10.547 16.312s4.2188 13.453 10.547 16.312l102.38 45.141-163.64 94.547-127.78-56.625c-9-3.9375-19.453 0.14062-23.531 9-3.9375 9 0.14062 19.453 9 23.531l104.16 46.219-65.391 37.781c-8.5312 4.9219-11.391 15.844-6.4688 24.234 3.2344 5.7656 9.2344 8.8594 15.375 8.8594 3 0 6.1406-0.70312 8.8594-2.3906l65.391-37.688-12 113.16c-1.0781 9.7031 6 18.469 15.844 19.547 0.60938 0.14062 1.3125 0.14062 1.9219 0.14062 9 0 16.688-6.7031 17.625-15.844l14.625-139.08 163.78-94.547-12.141 111.14c-0.70312 6.9375 2.625 13.781 8.7656 17.297 6.1406 3.4688 13.688 3.1406 19.453-1.0781l90.234-66.141v189.14l-112.92 82.312c-7.9219 5.7656-9.7031 16.922-3.9375 24.844 5.7656 7.9219 16.922 9.7031 24.844 3.9375l92.062-67.078v75.469c0 9.8438 7.9219 17.766 17.766 17.766s17.766-7.9219 17.766-17.766v-75.469l92.062 66.938c3.1406 2.2969 6.8438 3.375 10.453 3.375 5.5312 0 10.922-2.5312 14.391-7.3125 5.7656-7.9219 4.0781-19.078-3.9375-24.844l-112.92-82.312v-189.24l90.281 66.328c3.1406 2.2969 6.8438 3.4688 10.453 3.4688 3 0 6.1406-0.84375 8.8594-2.3906 6.1406-3.4688 9.6094-10.312 8.7656-17.297l-12.141-111.23 164.06 94.547 14.766 138.94c0.9375 9.1406 8.625 15.844 17.625 15.844 0.60938 0 1.3125 0 1.9219-0.14062 9.7031-1.0781 16.781-9.8438 15.844-19.547l-12-113.3 65.391 37.781c2.7656 1.6875 5.8594 2.3906 8.8594 2.3906 6.1406 0 12.141-3.2344 15.375-8.8594 4.9219-8.5312 2.0625-19.312-6.4688-24.234l-65.391-37.688 104.06-46.219c9-3.9375 13.078-14.531 9-23.531-4.125-8.7656-14.531-12.844-23.531-8.9062zm-451.22-208.78v78.703l-68.156-39.375-10.547-96.938zm-175.18 109.55 89.297-39.375 68.109 39.375-68.156 39.375zm96.469 167.16 10.547-96.938 68.156-39.375v78.703zm114.23-276.61 78.703-57.609-10.547 96.938-68.156 39.375zm0 219v-78.703l68.156 39.375 10.547 96.938zm85.922-70.172-68.156-39.375 68.156-39.375 89.25 39.375z"/>
</svg>
